<?xml version="1.0" encoding="UTF-8"?>
<svg id="Layer_1" data-name="Layer 1" xmlns="http://www.w3.org/2000/svg" viewBox="0 0 540 600">
  <defs>
    <style>
      .cls-1 {
        fill: #1a6191;
      }

      .cls-1, .cls-2 {
        stroke-width: 0px;
      }

      .cls-2 {
        fill: #d14646;
      }
    </style>
  </defs>
  <g>
    <path class="cls-1" d="m6.46,431.42h17.81c.53,9.17,7.31,15.81,18.73,15.81,12.62,0,18.07-5.18,18.07-10.9s-3.72-8.9-10.63-10.76l-15.28-4.12c-14.08-3.85-24.05-10.76-24.05-25.64,0-15.81,12.76-27.37,33.22-27.37s34.41,13.68,34.68,30.16h-17.8c-.27-6.64-5.71-13.55-16.87-13.55s-15.28,5.45-15.28,9.96c0,5.98,4.12,7.97,11.16,9.83l16.08,4.38c15.94,4.38,22.85,13.95,22.85,27.1,0,16.61-15.94,27.5-36.14,27.5-22.59,0-36.01-13.55-36.54-32.42Z"/>
    <path class="cls-1" d="m113.02,425.44l39.33,35.87v1.33h-22.59l-20.06-18.07v18.07h-16.61v-98.32h16.61v43.31l18.2-14.88h23.65v1.33l-38.53,31.36Z"/>
    <path class="cls-1" d="m158.99,361h16.74v18.34h-16.74v-18.34Zm.13,31.75h16.61v69.89h-16.61v-69.89Z"/>
    <path class="cls-1" d="m241.63,386.25h-26.97v-16.61h72.01v16.61h-27.1v76.4h-17.94v-76.4Z"/>
    <path class="cls-1" d="m283.36,434.88v-14.35c0-18.07,12.89-28.97,30.69-28.97s30.56,10.9,30.56,28.97v13.95h-45.04v1.2c0,9.7,5.98,13.55,14.48,13.55,7.17,0,12.89-3.06,13.55-8.37h16.74c-1.6,14.48-13.82,22.98-30.29,22.98-17.8,0-30.69-10.89-30.69-28.96Zm45.04-13.42v-2.52c0-7.17-5.85-12.36-14.35-12.36s-14.48,4.52-14.48,12.36v2.52h28.83Z"/>
    <path class="cls-1" d="m357.89,434.21v-13.02c0-18.07,10.23-29.63,28.04-29.63,6.91,0,12.36,1.73,16.61,4.92v-3.72h16.61v69.89h-16.61v-3.72c-4.25,3.19-9.7,4.92-16.61,4.92-17.81,0-28.04-11.56-28.04-29.63Zm30.69,13.69c9.17,0,13.95-3.99,13.95-13.69v-13.02c0-8.37-4.78-13.68-13.95-13.68s-14.08,5.31-14.08,13.68v13.02c0,9.7,4.92,13.69,14.08,13.69Z"/>
    <path class="cls-1" d="m433.76,392.76h16.61v3.59c2.92-2.26,7.17-4.78,15.68-4.78s15.81,2.92,20.46,8.37c2.79-3.06,8.77-8.37,20.59-8.37,15.01,0,26.44,9.04,26.44,24.58v46.5h-16.61v-43.05c0-6.11-3.06-12.09-13.02-12.09-7.71,0-11.96,5.05-11.96,12.09v43.05h-16.61v-43.05c0-6.11-3.06-12.09-13.02-12.09-7.71,0-11.96,5.05-11.96,12.09v43.05h-16.61v-69.89Z"/>
    <path class="cls-1" d="m18.08,560.34h17.8c.53,9.17,7.31,15.81,18.74,15.81,12.62,0,18.07-5.18,18.07-10.9s-3.72-8.9-10.63-10.76l-15.28-4.12c-14.08-3.85-24.05-10.76-24.05-25.64,0-15.81,12.76-27.37,33.22-27.37s34.41,13.68,34.68,30.16h-17.8c-.27-6.64-5.71-13.55-16.87-13.55s-15.28,5.45-15.28,9.96c0,5.98,4.12,7.97,11.16,9.83l16.08,4.38c15.94,4.38,22.85,13.95,22.85,27.1,0,16.61-15.94,27.5-36.14,27.5-22.59,0-36.01-13.55-36.54-32.42Z"/>
    <path class="cls-1" d="m104.72,571.23v-77.99h16.61v82.38h12.49v15.94h-8.1c-12.09,0-20.99-7.71-20.99-20.33Z"/>
    <path class="cls-1" d="m173.14,520.48c17.8,0,30.56,11.56,30.56,29.63v13.02c0,18.07-12.76,29.63-30.56,29.63s-30.69-11.56-30.69-29.63v-13.02c0-18.07,12.89-29.63,30.69-29.63Zm0,56.34c9.17,0,13.95-3.99,13.95-13.69v-13.02c0-8.37-4.78-13.68-13.95-13.68s-14.08,5.31-14.08,13.68v13.02c0,9.7,4.92,13.69,14.08,13.69Z"/>
    <path class="cls-1" d="m212.34,521.67h19l14.61,66.57,14.61-66.57h19l-16.74,69.89h-33.75l-16.74-69.89Z"/>
    <path class="cls-1" d="m288.87,563.13v-13.02c0-18.07,10.23-29.63,28.04-29.63,6.91,0,12.36,1.73,16.61,4.92v-3.72h16.61v69.89h-16.61v-3.72c-4.25,3.19-9.7,4.92-16.61,4.92-17.81,0-28.04-11.56-28.04-29.63Zm30.69,13.69c9.17,0,13.95-3.99,13.95-13.69v-13.02c0-8.37-4.78-13.68-13.95-13.68s-14.08,5.31-14.08,13.68v13.02c0,9.7,4.92,13.69,14.08,13.69Z"/>
    <path class="cls-1" d="m384.67,554.36l39.33,35.87v1.33h-22.59l-20.06-18.07v18.07h-16.61v-98.32h16.61v43.31l18.2-14.88h23.65v1.33l-38.53,31.36Z"/>
    <path class="cls-1" d="m430.64,489.92h16.74v18.34h-16.74v-18.34Zm.13,31.75h16.61v69.89h-16.61v-69.89Z"/>
    <path class="cls-1" d="m460.67,563.13v-13.02c0-18.07,10.23-29.63,28.04-29.63,6.91,0,12.36,1.73,16.61,4.92v-3.72h16.61v69.89h-16.61v-3.72c-4.25,3.19-9.7,4.92-16.61,4.92-17.81,0-28.04-11.56-28.04-29.63Zm30.69,13.69c9.17,0,13.95-3.99,13.95-13.69v-13.02c0-8.37-4.78-13.68-13.95-13.68s-14.08,5.31-14.08,13.68v13.02c0,9.7,4.92,13.69,14.08,13.69Z"/>
  </g>
  <g>
    <g>
      <polygon class="cls-2" points="327.73 185.32 171.62 232.49 181.81 266.2 337.49 219.15 390.73 185.32 327.73 185.32"/>
      <polygon class="cls-2" points="215.76 126.07 371.87 78.9 361.68 45.19 206 92.24 152.76 126.07 215.76 126.07"/>
    </g>
    <path class="cls-1" d="m405.31,161.87c-1.16-4.88-3.12-9.66-5.96-14.13-8.46-13.38-23.14-21.54-38.96-21.69l-207.63.03L313.91,23.65l-10.43-16.41-144.96,92.13c-4.68,2.98-8.65,6.65-11.86,10.8-8.61,11.12-11.75,25.65-8.49,39.35,1.16,4.88,3.12,9.66,5.96,14.13,8.46,13.38,23.14,21.54,38.96,21.69l207.64-.03-161.15,102.42,10.43,16.41,144.96-92.13c4.68-2.98,8.65-6.65,11.86-10.8,8.61-11.12,11.75-25.65,8.48-39.35Z"/>
  </g>
</svg>